HIERARCHY
ROOT hips_dup
{
	OFFSET 740.547119 85.626953 37.583111
	CHANNELS 6 Xposition Yposition Zposition Zrotation Yrotation Xrotation
	JOINT l_hip_dup
	{
		OFFSET 0.100000 -0.000000 0.000000
		CHANNELS 3 Zrotation Yrotation Xrotation
		JOINT l_thigh_dup
		{
			OFFSET 12.325401 0.000000 -0.000000
			CHANNELS 3 Zrotation Yrotation Xrotation
			JOINT l_knee_dup
			{
				OFFSET 2.775703 -52.963533 0.000001
				CHANNELS 3 Zrotation Yrotation Xrotation
				JOINT l_foot_dup
				{
					OFFSET 2.443169 -46.618436 0.000001
					CHANNELS 3 Zrotation Yrotation Xrotation
					JOINT l_toes_dup
					{
						OFFSET 0.311175 -5.937582 12.750666
						CHANNELS 3 Zrotation Yrotation Xrotation
						End l_toes_End_dup
						{
							OFFSET 0.044636 -0.851711 9.748467
						}
					}
				}
			}
		}
	}
	JOINT r_hip_dup
	{
		OFFSET 0.100000 -0.000000 0.000000
		CHANNELS 3 Zrotation Yrotation Xrotation
		JOINT r_thigh_dup
		{
			OFFSET -12.325401 0.000000 -0.000000
			CHANNELS 3 Zrotation Yrotation Xrotation
			JOINT r_knee_dup
			{
				OFFSET -2.728099 -52.055206 -0.000001
				CHANNELS 3 Zrotation Yrotation Xrotation
				JOINT r_foot_dup
				{
					OFFSET -2.488649 -47.486215 -0.000001
					CHANNELS 3 Zrotation Yrotation Xrotation
					JOINT r_toes_dup
					{
						OFFSET -0.340057 -6.488687 13.934137
						CHANNELS 3 Zrotation Yrotation Xrotation
						End r_toes_End_dup
						{
							OFFSET -0.046094 -0.879518 10.066733
						}
					}
				}
			}
		}
	}
	JOINT spine1_dup
	{
		OFFSET 0.100000 0.000000 -0.000000
		CHANNELS 3 Zrotation Yrotation Xrotation
		JOINT spine2_dup
		{
			OFFSET -0.000000 14.215645 -0.000000
			CHANNELS 3 Zrotation Yrotation Xrotation
			JOINT spine3_dup
			{
				OFFSET -0.435970 23.745087 -0.905567
				CHANNELS 3 Zrotation Yrotation Xrotation
				JOINT neck_dup
				{
					OFFSET -0.218957 18.933090 -0.472811
					CHANNELS 3 Zrotation Yrotation Xrotation
					JOINT head_dup
					{
						OFFSET 0.331457 12.008331 0.226232
						CHANNELS 3 Zrotation Yrotation Xrotation
						End head_End_dup
						{
							OFFSET 0.538358 11.858373 1.269734
						}
					}
				}
				JOINT l_clavicle_dup
				{
					OFFSET -0.218957 18.933090 -0.472811
					CHANNELS 3 Zrotation Yrotation Xrotation
					JOINT l_shoulder_dup
					{
						OFFSET 15.116303 0.000000 0.000000
						CHANNELS 3 Zrotation Yrotation Xrotation
						JOINT l_elbow_dup
						{
							OFFSET 31.712253 -0.000737 2.830977
							CHANNELS 3 Zrotation Yrotation Xrotation
							JOINT l_hand_dup
							{
								OFFSET 34.877886 -0.000002 6.159167
								CHANNELS 3 Zrotation Yrotation Xrotation
								End l_hand_End_dup
								{
									OFFSET 12.171075 0.250001 2.146094
								}
							}
						}
					}
				}
				JOINT r_clavicle_dup
				{
					OFFSET -0.218957 18.933090 -0.472811
					CHANNELS 3 Zrotation Yrotation Xrotation
					JOINT r_shoulder_dup
					{
						OFFSET -14.846962 0.000000 0.000000
						CHANNELS 3 Zrotation Yrotation Xrotation
						JOINT r_elbow_dup
						{
							OFFSET -32.950214 0.000983 2.813988
							CHANNELS 3 Zrotation Yrotation Xrotation
							JOINT r_hand_dup
							{
								OFFSET -32.405870 -0.000004 5.705434
								CHANNELS 3 Zrotation Yrotation Xrotation
								End r_hand_End_dup
								{
									OFFSET -12.660152 0.250000 2.232319
								}
							}
						}
					}
				}
			}
		}
	}
}
MOTION
Frames: 19
Frame Time: 0.041667
740.659	85.670	37.611	63.021	-88.668	-45.949	0.000	-0.000	0.000	10.763	14.606	-61.578	2.009	2.733	68.796	0.203	-9.059	-24.536	0.001	0.021	0.403	0.000	-0.000	0.000	-5.807	-27.675	-60.252	-1.993	-2.728	68.471	-0.300	10.039	-25.299	-0.002	0.040	-0.758	0.000	0.000	0.000	1.375	-5.281	27.331	-0.575	-2.654	-11.711	-0.267	4.243	-15.669	3.218	3.806	-6.664	-13.236	-4.218	1.015	-34.239	-23.468	-50.333	-12.253	-43.960	-51.634	5.506	-25.859	-3.292	13.215	1.821	0.404	39.024	26.198	-38.616	12.714	52.168	-41.213	-13.968	2.646	-3.143
740.547	85.627	37.583	56.491	-88.665	-39.752	0.000	-0.000	0.000	10.873	14.669	-61.303	2.015	2.736	68.926	0.204	-9.278	-24.646	0.001	0.024	0.452	0.000	-0.000	0.000	-5.893	-27.780	-59.821	-1.998	-2.730	68.585	-0.304	10.055	-25.456	-0.002	0.048	-0.922	0.000	0.000	0.000	1.452	-5.309	27.343	-0.691	-2.672	-11.628	-0.158	4.163	-15.970	3.223	3.700	-6.368	-13.274	-3.947	0.954	-34.152	-23.707	-50.235	-12.199	-43.879	-51.381	5.122	-25.698	-3.049	13.554	1.285	0.286	39.029	26.729	-38.475	12.728	52.067	-41.457	-13.893	2.315	-3.045
740.212	85.699	37.526	47.435	-88.735	-31.617	0.000	-0.000	0.000	11.229	14.805	-60.195	2.011	2.734	68.842	0.206	-9.670	-24.877	0.001	0.034	0.648	0.000	-0.000	0.000	-6.214	-27.823	-58.437	-1.995	-2.728	68.513	-0.312	10.132	-25.800	-0.002	0.041	-0.778	0.000	0.000	0.000	1.507	-5.196	27.426	-0.939	-2.643	-11.274	0.451	4.138	-16.740	2.880	3.530	-5.834	-13.394	-3.723	0.909	-33.776	-23.913	-50.190	-12.202	-43.899	-51.366	4.360	-25.165	-2.561	14.323	0.454	0.090	39.045	27.738	-38.618	12.865	51.984	-42.287	-13.350	1.605	-2.754
740.037	85.885	37.488	42.832	-88.890	-27.519	0.000	-0.000	0.000	11.453	14.988	-59.407	1.996	2.729	68.543	0.206	-9.895	-24.959	0.002	0.041	0.777	0.000	-0.000	0.000	-6.214	-27.838	-57.615	-1.977	-2.722	68.155	-0.309	10.262	-25.734	-0.002	0.047	-0.889	0.000	0.000	0.000	1.552	-5.118	27.518	-0.871	-2.598	-11.070	0.733	4.235	-17.267	2.684	3.554	-5.288	-13.436	-3.698	0.907	-33.887	-23.733	-50.204	-12.202	-43.977	-51.222	3.745	-24.650	-2.171	14.535	0.352	0.065	39.072	28.059	-38.705	13.067	52.071	-43.150	-12.936	1.427	-2.625
739.920	86.321	37.504	48.399	-89.031	-33.444	0.000	-0.000	0.000	11.283	15.416	-58.596	1.959	2.715	67.786	0.196	-10.262	-24.627	0.002	0.042	0.794	0.000	-0.000	0.000	-6.192	-27.916	-56.839	-1.935	-2.706	67.294	-0.299	10.542	-25.399	-0.002	0.045	-0.866	0.000	0.000	0.000	1.385	-4.894	27.523	-1.132	-2.539	-10.766	1.547	4.382	-17.884	2.187	3.510	-5.023	-13.040	-3.893	0.924	-34.080	-23.308	-50.072	-12.269	-44.061	-51.565	3.371	-24.577	-1.950	15.004	0.137	0.010	39.494	28.550	-38.840	13.395	52.187	-44.642	-12.108	1.317	-2.428
739.915	86.670	37.587	53.219	-89.019	-38.435	0.000	-0.000	0.000	11.047	15.524	-58.128	1.929	2.704	67.177	0.189	-10.361	-24.308	0.001	0.037	0.698	0.000	-0.000	0.000	-6.220	-28.081	-56.360	-1.899	-2.692	66.557	-0.289	10.722	-25.056	-0.002	0.042	-0.808	0.000	0.000	0.000	1.390	-4.694	27.526	-1.569	-2.485	-10.598	1.799	4.207	-17.902	2.349	3.285	-5.373	-12.480	-4.086	0.926	-34.408	-23.168	-49.780	-12.269	-44.013	-51.657	3.307	-24.747	-1.921	14.958	-0.001	-0.027	40.225	28.587	-38.956	13.632	52.415	-45.460	-11.655	1.399	-2.351
739.986	86.719	37.637	52.010	-88.893	-37.310	0.000	-0.000	0.000	10.946	15.381	-58.059	1.924	2.702	67.071	0.188	-10.299	-24.237	0.001	0.029	0.546	0.000	-0.000	0.000	-6.344	-28.196	-56.221	-1.893	-2.690	66.446	-0.287	10.735	-24.967	-0.002	0.051	-0.966	0.000	0.000	0.000	1.439	-4.594	27.608	-1.920	-2.465	-10.554	2.016	4.020	-17.894	2.562	3.068	-5.438	-12.251	-4.135	0.919	-34.261	-23.335	-49.602	-12.247	-43.938	-51.632	3.226	-24.759	-1.875	14.870	0.173	0.019	40.565	28.221	-39.261	13.715	52.729	-45.238	-11.692	1.331	-2.345
740.113	86.594	37.650	49.080	-88.757	-34.398	0.000	-0.000	0.000	10.935	15.204	-58.222	1.928	2.704	67.165	0.190	-10.316	-24.366	0.002	0.045	0.860	0.000	-0.000	0.000	-6.436	-28.295	-56.345	-1.905	-2.695	66.687	-0.291	10.716	-25.159	-0.002	0.045	-0.856	0.000	0.000	0.000	1.447	-4.539	27.734	-2.284	-2.473	-10.535	2.397	3.940	-17.982	2.574	2.920	-5.360	-12.058	-4.049	0.886	-33.813	-23.609	-49.355	-12.285	-44.048	-51.711	3.329	-25.007	-1.946	15.117	0.279	0.048	40.461	28.014	-39.431	13.745	53.008	-44.804	-11.623	1.216	-2.307
740.369	86.116	37.604	43.331	-88.468	-28.669	0.000	-0.000	0.000	10.970	14.994	-58.842	1.961	2.716	67.838	0.190	-10.558	-24.457	0.002	0.039	0.742	0.000	-0.000	0.000	-6.618	-28.410	-56.848	-1.953	-2.713	67.674	-0.304	10.523	-25.605	-0.002	0.044	-0.840	0.000	0.000	0.000	1.386	-4.637	28.104	-2.345	-2.538	-10.603	2.511	3.902	-18.472	2.454	2.832	-4.970	-11.995	-3.952	0.860	-33.113	-23.609	-48.758	-12.512	-44.866	-51.835	4.551	-25.637	-2.704	15.350	0.278	0.049	39.848	28.090	-39.483	13.749	53.277	-44.255	-11.314	1.318	-2.264
740.669	85.510	37.498	36.892	-88.222	-22.197	0.000	-0.000	0.000	10.904	15.245	-59.745	2.003	2.731	68.681	0.187	-11.126	-24.532	0.002	0.039	0.745	0.000	-0.000	0.000	-6.689	-28.449	-57.527	-2.014	-2.735	68.902	-0.320	10.265	-26.168	-0.002	0.044	-0.840	0.000	0.000	0.000	1.316	-4.868	28.625	-1.955	-2.628	-10.613	2.110	3.936	-19.135	2.518	2.872	-5.281	-12.265	-3.959	0.882	-32.452	-23.300	-48.231	-12.834	-46.000	-51.944	6.217	-26.533	-3.779	15.158	0.557	0.124	39.086	28.257	-39.642	13.862	53.539	-44.279	-11.081	1.400	-2.232
740.827	85.152	37.410	34.589	-88.129	-19.908	0.000	-0.000	0.000	10.829	15.587	-60.219	2.026	2.739	69.144	0.185	-11.680	-24.645	0.002	0.053	1.017	0.000	-0.000	0.000	-6.608	-28.644	-57.989	-2.049	-2.747	69.607	-0.325	10.445	-26.404	-0.001	0.037	-0.708	0.000	0.000	0.000	1.207	-4.952	29.041	-1.749	-2.669	-10.647	2.065	4.039	-19.314	2.403	2.946	-5.698	-12.398	-4.017	0.904	-32.068	-23.077	-48.089	-13.008	-46.534	-52.110	6.715	-26.798	-4.110	15.162	1.026	0.251	38.576	28.151	-39.788	13.827	53.508	-44.165	-11.334	1.910	-2.386
741.063	84.814	37.299	33.081	-88.197	-18.297	0.000	-0.000	0.000	10.783	16.050	-60.824	2.049	2.747	69.607	0.179	-12.095	-24.575	0.002	0.051	0.971	0.000	-0.000	0.000	-6.093	-29.109	-58.811	-2.079	-2.757	70.205	-0.322	10.943	-26.461	-0.001	0.017	-0.322	0.000	0.000	0.000	1.126	-4.938	29.569	-1.412	-2.649	-10.721	1.711	4.040	-19.371	2.639	3.006	-5.966	-12.447	-3.723	0.843	-32.236	-23.469	-48.131	-12.952	-46.336	-52.117	5.646	-26.547	-3.432	14.588	1.682	0.412	38.725	27.845	-39.489	13.805	53.484	-44.102	-12.565	3.037	-2.903
741.177	84.720	37.232	31.767	-88.333	-16.853	0.000	-0.000	0.000	10.909	16.200	-61.039	2.054	2.749	69.713	0.179	-12.159	-24.604	0.002	0.050	0.949	0.000	-0.000	0.000	-5.772	-29.150	-59.209	-2.087	-2.759	70.368	-0.321	11.131	-26.472	-0.000	0.000	-0.002	0.000	0.000	0.000	1.174	-4.833	29.774	-1.379	-2.593	-10.680	1.553	3.974	-19.433	2.824	2.972	-5.999	-12.377	-3.665	0.826	-32.541	-23.938	-48.696	-12.760	-45.729	-51.957	4.258	-26.017	-2.553	14.209	1.891	0.453	39.259	27.735	-39.091	13.733	53.329	-44.060	-13.388	3.927	-3.309
741.284	84.694	37.198	34.693	-88.440	-19.610	0.000	-0.000	0.000	10.885	16.271	-61.214	2.053	2.749	69.699	0.179	-12.059	-24.559	0.002	0.039	0.752	0.000	-0.000	0.000	-5.682	-28.969	-59.531	-2.089	-2.760	70.418	-0.321	11.031	-26.417	0.000	-0.013	0.246	0.000	0.000	0.000	1.140	-4.640	29.892	-1.548	-2.524	-10.592	1.431	3.907	-19.522	3.004	2.923	-6.181	-12.088	-3.844	0.844	-32.964	-24.232	-49.201	-12.659	-45.330	-52.017	3.331	-25.464	-1.970	13.923	1.892	0.444	40.065	27.645	-38.608	13.773	53.344	-44.235	-14.453	4.645	-3.765
741.352	84.681	37.142	34.036	-88.267	-18.777	0.000	-0.000	0.000	10.775	16.045	-61.509	2.056	2.749	69.750	0.183	-11.734	-24.581	0.002	0.044	0.848	0.000	-0.000	0.000	-5.620	-29.070	-59.780	-2.093	-2.762	70.501	-0.321	10.908	-26.403	-0.000	0.004	-0.085	0.000	0.000	0.000	1.100	-4.803	29.991	-1.462	-2.600	-10.602	1.089	4.074	-19.554	3.046	3.147	-6.411	-11.995	-3.898	0.849	-33.885	-24.486	-49.169	-12.574	-45.123	-51.794	2.294	-25.873	-1.369	14.036	1.349	0.312	40.463	27.814	-36.618	13.999	53.410	-45.291	-14.432	4.977	-3.843
741.347	84.872	37.143	30.433	-87.878	-14.883	0.000	-0.000	0.000	10.387	15.931	-61.859	2.043	2.745	69.488	0.182	-11.579	-24.465	0.001	0.034	0.641	0.000	-0.000	0.000	-5.581	-29.382	-59.752	-2.078	-2.757	70.188	-0.322	10.821	-26.414	-0.001	0.036	-0.692	0.000	0.000	0.000	1.359	-4.812	29.967	-1.726	-2.596	-10.413	1.264	3.965	-20.058	2.809	2.962	-6.321	-11.999	-4.274	0.929	-34.748	-23.946	-46.622	-13.680	-48.802	-51.911	7.226	-25.574	-4.299	15.447	-0.851	-0.263	40.089	29.802	-34.682	14.038	53.057	-46.303	-14.709	5.101	-3.952
741.230	85.131	37.166	26.375	-87.558	-10.780	0.000	-0.000	0.000	10.382	15.647	-61.677	2.020	2.737	69.023	0.181	-11.526	-24.394	0.000	0.009	0.169	0.000	-0.000	0.000	-6.161	-28.734	-58.886	-2.051	-2.748	69.658	-0.338	9.892	-26.783	-0.001	0.024	-0.466	0.000	0.000	0.000	1.534	-4.903	30.291	-1.504	-2.600	-10.423	1.352	3.866	-20.696	2.701	2.773	-6.648	-11.609	-3.951	0.832	-35.436	-21.941	-39.190	-15.807	-55.328	-48.606	16.684	-27.446	-10.555	14.869	-1.778	-0.499	40.532	28.617	-30.658	14.886	55.576	-44.883	-18.886	5.678	-5.343
740.771	86.959	37.758	31.732	-87.755	-15.722	0.000	-0.000	0.000	10.452	13.872	-59.708	1.885	2.687	66.277	0.199	-9.077	-24.343	-0.000	-0.004	-0.078	0.000	-0.000	0.000	-7.716	-25.827	-56.096	-1.858	-2.676	65.724	-0.326	6.942	-25.635	-0.002	0.056	-1.075	0.000	0.000	0.000	1.557	-5.323	30.804	-1.149	-2.779	-10.291	1.283	4.228	-21.504	2.522	2.975	-8.304	-10.427	-3.418	0.647	-34.443	-16.335	-20.695	-17.373	-66.473	-26.366	13.278	-33.136	-9.351	12.121	-1.289	-0.298	40.783	21.208	-15.272	19.894	65.024	-38.130	-15.965	10.718	-5.854
740.204	89.609	38.681	84.839	-88.906	-68.071	0.000	-0.000	0.000	10.402	12.327	-57.022	1.707	2.609	62.570	0.193	-4.849	-22.964	-0.001	-0.017	-0.320	0.000	-0.000	0.000	-7.767	-23.924	-53.991	-1.564	-2.536	59.489	-0.258	5.978	-22.505	-0.007	0.132	-2.526	0.000	0.000	0.000	1.301	-5.496	30.817	-1.172	-2.913	-9.869	0.890	5.154	-21.749	2.179	3.880	-8.980	-9.521	-3.446	0.594	-33.751	-12.275	-8.416	-7.587	-70.047	-7.531	5.794	-34.499	-4.141	10.108	-0.213	-0.056	41.710	17.562	-1.489	25.449	70.120	-33.704	-9.108	9.766	-3.137
